<mxfile host="app.diagrams.net" agent="Mozilla/5.0 (Windows NT 10.0; Win64; x64) AppleWebKit/537.36 (KHTML, like Gecko) Chrome/140.0.0.0 Safari/537.36" version="27.2.0">
  <diagram name="Page-1" id="fMtk5X_IOWKL1yD5KJsa">
    <mxGraphModel dx="1119" dy="662" grid="0" gridSize="10" guides="1" tooltips="1" connect="1" arrows="1" fold="1" page="1" pageScale="1" pageWidth="2000" pageHeight="1000" math="0" shadow="0">
      <root>
        <mxCell id="0" />
        <mxCell id="1" parent="0" />
        <mxCell id="Pg6_A9XEx0t3s5VY6EGh-1" value="研究人员" style="swimlane;whiteSpace=wrap;startSize=23;strokeColor=default;swimlaneLine=0;" vertex="1" parent="1">
          <mxGeometry x="345" y="94" width="280" height="512" as="geometry" />
        </mxCell>
        <mxCell id="Pg6_A9XEx0t3s5VY6EGh-3" value="获取数据指令" style="rounded=1;arcSize=50;" vertex="1" parent="Pg6_A9XEx0t3s5VY6EGh-1">
          <mxGeometry x="60" y="68" width="146" height="24" as="geometry" />
        </mxCell>
        <mxCell id="Pg6_A9XEx0t3s5VY6EGh-4" style="edgeStyle=orthogonalEdgeStyle;rounded=0;orthogonalLoop=1;jettySize=auto;html=1;entryX=0.5;entryY=0;entryDx=0;entryDy=0;" edge="1" parent="Pg6_A9XEx0t3s5VY6EGh-1" source="Pg6_A9XEx0t3s5VY6EGh-5" target="Pg6_A9XEx0t3s5VY6EGh-3">
          <mxGeometry relative="1" as="geometry">
            <mxPoint x="115" y="85.03937744140626" as="targetPoint" />
          </mxGeometry>
        </mxCell>
        <mxCell id="Pg6_A9XEx0t3s5VY6EGh-5" value="" style="ellipse;whiteSpace=wrap;html=1;aspect=fixed;fillColor=#000000;" vertex="1" parent="Pg6_A9XEx0t3s5VY6EGh-1">
          <mxGeometry x="20" y="28" width="30" height="30" as="geometry" />
        </mxCell>
        <mxCell id="Pg6_A9XEx0t3s5VY6EGh-61" style="edgeStyle=orthogonalEdgeStyle;rounded=0;orthogonalLoop=1;jettySize=auto;html=1;exitX=0.5;exitY=1;exitDx=0;exitDy=0;" edge="1" parent="Pg6_A9XEx0t3s5VY6EGh-1" source="Pg6_A9XEx0t3s5VY6EGh-36" target="Pg6_A9XEx0t3s5VY6EGh-37">
          <mxGeometry relative="1" as="geometry" />
        </mxCell>
        <mxCell id="Pg6_A9XEx0t3s5VY6EGh-36" value="历史数据分析" style="rounded=1;arcSize=50;" vertex="1" parent="Pg6_A9XEx0t3s5VY6EGh-1">
          <mxGeometry x="50" y="135" width="148.5" height="27" as="geometry" />
        </mxCell>
        <mxCell id="Pg6_A9XEx0t3s5VY6EGh-37" value="部分数据人工标注" style="rounded=1;arcSize=50;" vertex="1" parent="Pg6_A9XEx0t3s5VY6EGh-1">
          <mxGeometry x="58" y="184" width="132.5" height="27" as="geometry" />
        </mxCell>
        <mxCell id="Pg6_A9XEx0t3s5VY6EGh-62" value="预测指令" style="rounded=1;arcSize=50;" vertex="1" parent="Pg6_A9XEx0t3s5VY6EGh-1">
          <mxGeometry x="54" y="236" width="148.5" height="27" as="geometry" />
        </mxCell>
        <mxCell id="Pg6_A9XEx0t3s5VY6EGh-46" value="数据管理与分析子系统" style="swimlane;whiteSpace=wrap;swimlaneLine=0;startSize=23;" vertex="1" parent="1">
          <mxGeometry x="625" y="94" width="280" height="512" as="geometry">
            <mxRectangle x="730" y="34" width="95" height="26" as="alternateBounds" />
          </mxGeometry>
        </mxCell>
        <mxCell id="Pg6_A9XEx0t3s5VY6EGh-30" value="获取历史数据" style="rounded=1;arcSize=50;" vertex="1" parent="Pg6_A9XEx0t3s5VY6EGh-46">
          <mxGeometry x="121" y="66.5" width="110" height="27" as="geometry" />
        </mxCell>
        <mxCell id="Pg6_A9XEx0t3s5VY6EGh-32" value="" style="rhombus;whiteSpace=wrap;html=1;" vertex="1" parent="Pg6_A9XEx0t3s5VY6EGh-46">
          <mxGeometry x="94" y="306" width="30" height="30" as="geometry" />
        </mxCell>
        <mxCell id="Pg6_A9XEx0t3s5VY6EGh-8" value="显示预测结果" style="rounded=1;arcSize=50;" vertex="1" parent="Pg6_A9XEx0t3s5VY6EGh-46">
          <mxGeometry x="54" y="372" width="110" height="27" as="geometry" />
        </mxCell>
        <mxCell id="Pg6_A9XEx0t3s5VY6EGh-31" style="edgeStyle=orthogonalEdgeStyle;rounded=0;orthogonalLoop=1;jettySize=auto;html=1;exitX=0.5;exitY=1;exitDx=0;exitDy=0;entryX=0.5;entryY=0;entryDx=0;entryDy=0;" edge="1" parent="Pg6_A9XEx0t3s5VY6EGh-46" source="Pg6_A9XEx0t3s5VY6EGh-32" target="Pg6_A9XEx0t3s5VY6EGh-8">
          <mxGeometry relative="1" as="geometry" />
        </mxCell>
        <mxCell id="Pg6_A9XEx0t3s5VY6EGh-65" style="edgeStyle=orthogonalEdgeStyle;rounded=0;orthogonalLoop=1;jettySize=auto;html=1;entryX=0.5;entryY=0;entryDx=0;entryDy=0;" edge="1" parent="Pg6_A9XEx0t3s5VY6EGh-46" source="Pg6_A9XEx0t3s5VY6EGh-63" target="Pg6_A9XEx0t3s5VY6EGh-32">
          <mxGeometry relative="1" as="geometry" />
        </mxCell>
        <mxCell id="Pg6_A9XEx0t3s5VY6EGh-63" value="模型训练" style="rounded=1;arcSize=50;" vertex="1" parent="Pg6_A9XEx0t3s5VY6EGh-46">
          <mxGeometry x="94" y="225" width="148.5" height="27" as="geometry" />
        </mxCell>
        <mxCell id="Pg6_A9XEx0t3s5VY6EGh-6" value="" style="ellipse;shape=endState;fillColor=#000000;strokeColor=#000000;" vertex="1" parent="Pg6_A9XEx0t3s5VY6EGh-46">
          <mxGeometry x="94" y="440" width="30" height="30" as="geometry" />
        </mxCell>
        <mxCell id="Pg6_A9XEx0t3s5VY6EGh-7" style="edgeStyle=orthogonalEdgeStyle;rounded=0;orthogonalLoop=1;jettySize=auto;html=1;exitX=0.5;exitY=1;exitDx=0;exitDy=0;entryX=0.5;entryY=0;entryDx=0;entryDy=0;" edge="1" parent="Pg6_A9XEx0t3s5VY6EGh-46" source="Pg6_A9XEx0t3s5VY6EGh-8" target="Pg6_A9XEx0t3s5VY6EGh-6">
          <mxGeometry relative="1" as="geometry">
            <mxPoint x="-168" y="595" as="targetPoint" />
          </mxGeometry>
        </mxCell>
        <mxCell id="Pg6_A9XEx0t3s5VY6EGh-58" style="edgeStyle=orthogonalEdgeStyle;rounded=0;orthogonalLoop=1;jettySize=auto;html=1;entryX=0.5;entryY=0;entryDx=0;entryDy=0;" edge="1" parent="1" source="Pg6_A9XEx0t3s5VY6EGh-37" target="Pg6_A9XEx0t3s5VY6EGh-63">
          <mxGeometry relative="1" as="geometry">
            <mxPoint x="786" y="394" as="targetPoint" />
          </mxGeometry>
        </mxCell>
        <mxCell id="Pg6_A9XEx0t3s5VY6EGh-27" style="edgeStyle=orthogonalEdgeStyle;rounded=0;orthogonalLoop=1;jettySize=auto;html=1;exitX=1;exitY=0.5;exitDx=0;exitDy=0;entryX=0;entryY=0.5;entryDx=0;entryDy=0;" edge="1" parent="1" source="Pg6_A9XEx0t3s5VY6EGh-3" target="Pg6_A9XEx0t3s5VY6EGh-30">
          <mxGeometry relative="1" as="geometry">
            <mxPoint x="491.1739130434785" y="344.3560605256455" as="targetPoint" />
            <mxPoint x="491.5" y="316.5" as="sourcePoint" />
          </mxGeometry>
        </mxCell>
        <mxCell id="Pg6_A9XEx0t3s5VY6EGh-29" style="edgeStyle=orthogonalEdgeStyle;rounded=0;orthogonalLoop=1;jettySize=auto;html=1;exitX=0.5;exitY=1;exitDx=0;exitDy=0;entryX=0.5;entryY=0;entryDx=0;entryDy=0;" edge="1" parent="1" source="Pg6_A9XEx0t3s5VY6EGh-30" target="Pg6_A9XEx0t3s5VY6EGh-36">
          <mxGeometry relative="1" as="geometry">
            <mxPoint x="491.5" y="374" as="targetPoint" />
          </mxGeometry>
        </mxCell>
        <mxCell id="Pg6_A9XEx0t3s5VY6EGh-66" style="edgeStyle=orthogonalEdgeStyle;rounded=0;orthogonalLoop=1;jettySize=auto;html=1;entryX=0;entryY=0.5;entryDx=0;entryDy=0;exitX=0.5;exitY=1;exitDx=0;exitDy=0;" edge="1" parent="1" source="Pg6_A9XEx0t3s5VY6EGh-62" target="Pg6_A9XEx0t3s5VY6EGh-32">
          <mxGeometry relative="1" as="geometry" />
        </mxCell>
      </root>
    </mxGraphModel>
  </diagram>
</mxfile>
